<svg data-v-0dd9719b="" version="1.0" xmlns="http://www.w3.org/2000/svg" xmlns:xlink="http://www.w3.org/1999/xlink" width="100%" height="100%" viewBox="0 0 340.000000 250.000000" preserveAspectRatio="xMidYMid meet" color-interpolation-filters="sRGB" style="margin: auto;"> <rect data-v-0dd9719b="" x="0" y="0" width="100%" height="100%" fill="#fefefd" fill-opacity="1" class="background"></rect> <rect data-v-0dd9719b="" x="0" y="0" width="100%" height="100%" fill="url(#watermark)" fill-opacity="1" class="watermarklayer"></rect> <g data-v-0dd9719b="" fill="#304953" class="icon-text-wrapper icon-svg-group iconsvg" transform="translate(85.50999450683594,96.14635467529297)"><g class="iconsvg-imagesvg" transform="translate(0,0)"><g><rect fill="#304953" fill-opacity="0" stroke-width="2" x="0" y="0" width="60" height="57.70728939243842" class="image-rect"></rect> <svg filter="url(#colors5018678602)" x="0" y="0" width="60" height="57.70728939243842" filtersec="colorsf7114351926" class="image-svg-svg primary" style="overflow: visible;"><svg fill="#000000" xmlns="http://www.w3.org/2000/svg" xmlns:xlink="http://www.w3.org/1999/xlink" version="1.1" x="0px" y="0px" viewBox="6.199999809265137 8 75.9000015258789 73" enable-background="new 0 0 90 90" xml:space="preserve"><polygon points="49.8,57.3 46,68.2 46,68 15.7,68 32.5,81 55.6,81 65.4,50.7 54.6,42.9 "></polygon><polygon points="53.7,39.6 53.7,39.6 67.7,49.8 58.2,79.1 75,66.9 82.1,44.9 56.4,26.3 45.9,33.9 "></polygon><polygon points="81.4,41.9 75,22.2 56.3,8.7 30.8,27.2 34.8,39.6 56.4,23.8 "></polygon><polygon points="34,42.8 28.6,26.2 53.2,8 32.5,8 13.8,21.8 23.5,52 36.7,52 34,42.8 "></polygon><polygon points="39.4,54 22.1,54 12.6,24.9 6.2,44.3 13.4,66 44.9,66 49,54 "></polygon></svg></svg> <defs><filter id="colors5018678602"><feColorMatrix type="matrix" values="0 0 0 0 0.1875  0 0 0 0 0.28515625  0 0 0 0 0.32421875  0 0 0 1 0" class="icon-fecolormatrix"></feColorMatrix></filter> <filter id="colorsf7114351926"><feColorMatrix type="matrix" values="0 0 0 0 0.99609375  0 0 0 0 0.99609375  0 0 0 0 0.99609375  0 0 0 1 0" class="icon-fecolormatrix"></feColorMatrix></filter> <filter id="colorsb3565243990"><feColorMatrix type="matrix" values="0 0 0 0 0  0 0 0 0 0  0 0 0 0 0  0 0 0 1 0" class="icon-fecolormatrix"></feColorMatrix></filter></defs></g></g> <g transform="translate(67,10.458646774291992)"><g data-gra="path-name" fill-rule="" class="tp-name iconsvg-namesvg"><g transform="scale(1)"><g><path d="M5.4-40.69L21.64-40.69 28.54-17.62 41.6-40.69 54.73-40.69 49.73-3.9 38.48-3.9 41.6-23.27 31.66-6.37 21.64-6.37 16.64-22.62 14.17-3.9 2.93-3.9 7.93-38.22 5.4-40.69ZM63.05-40.69L104.91-40.69 103.03-25.74 99.25-23.27 102.38-20.73 100.49-8.26Q100.03-6.37 98.73-5.13 97.44-3.9 95.55-3.9L95.55-3.9 60.58-3.9 64.94-38.22 63.05-40.69ZM91.78-34.45L76.83-34.45 76.18-26.39 90.55-26.39 91.78-34.45ZM89.9-20.15L74.94-20.15 73.71-10.14 88.66-10.14 89.9-20.15Z" transform="translate(-2.930000066757202, 40.689998626708984)"></path></g> <!----> <!----> <!----> <!----> <!----> <!----> <!----></g></g> <!----></g></g><defs v-gra="od"></defs></svg>